<svg width="22" height="21" viewBox="0 0 22 21" fill="none" xmlns="http://www.w3.org/2000/svg">
<path d="M16.3848 19.4615H5.61561C5.20758 19.4615 4.81627 19.2994 4.52775 19.0109C4.23924 18.7224 4.07715 18.3311 4.07715 17.9231V4.0769H17.9233V17.9231C17.9233 18.3311 17.7612 18.7224 17.4727 19.0109C17.1842 19.2994 16.7929 19.4615 16.3848 19.4615Z" stroke="#5D5A88" stroke-width="2" stroke-linecap="round" stroke-linejoin="round"/>
<path d="M8.69238 14.8461V8.69226" stroke="#5D5A88" stroke-width="2" stroke-linecap="round" stroke-linejoin="round"/>
<path d="M13.3076 14.8461V8.69226" stroke="#5D5A88" stroke-width="2" stroke-linecap="round" stroke-linejoin="round"/>
<path d="M1 4.0769H21" stroke="#5D5A88" stroke-width="2" stroke-linecap="round" stroke-linejoin="round"/>
<path d="M13.3081 1H8.69276C8.28473 1 7.89342 1.16209 7.6049 1.45061C7.31638 1.73912 7.1543 2.13044 7.1543 2.53846V4.07692H14.8466V2.53846C14.8466 2.13044 14.6845 1.73912 14.396 1.45061C14.1075 1.16209 13.7162 1 13.3081 1Z" stroke="#5D5A88" stroke-width="2" stroke-linecap="round" stroke-linejoin="round"/>
</svg>
