<svg width="15" height="15" viewBox="0 0 15 15" fill="none" xmlns="http://www.w3.org/2000/svg">
<path d="M4.06934 12.6814C4.69135 12.6814 5.20117 13.2016 5.20117 13.8445C5.20108 14.4797 4.6913 14.9998 4.06934 14.9998C3.43998 14.9996 2.93075 14.4796 2.93066 13.8445C2.93066 13.2016 3.43993 12.6815 4.06934 12.6814ZM12.5 12.6814C13.122 12.6814 13.6318 13.2016 13.6318 13.8445C13.6317 14.4797 13.122 14.9998 12.5 14.9998C11.8708 14.9995 11.3614 14.4795 11.3613 13.8445C11.3613 13.2017 11.8707 12.6817 12.5 12.6814ZM0.660156 0.0065918L2.44727 0.281006C2.70195 0.327722 2.88956 0.541405 2.91211 0.801514L3.05371 2.51636C3.07625 2.76198 3.27195 2.94604 3.51172 2.94604H13.6318C14.089 2.94604 14.3887 3.10666 14.6885 3.45874C14.9882 3.81081 15.0411 4.31573 14.9736 4.77417L14.2617 9.79468C14.1268 10.7598 13.317 11.4714 12.3652 11.4714H4.18945C3.19291 11.4714 2.36879 10.6915 2.28613 9.6814L1.59668 1.33765L0.464844 1.13843C0.165115 1.08482 -0.0446425 0.786353 0.0078125 0.480225C0.0602977 0.167216 0.352915 -0.0400936 0.660156 0.0065918ZM9.09082 5.7771C8.77607 5.7771 8.52832 6.02986 8.52832 6.35132C8.52857 6.66491 8.77622 6.92456 9.09082 6.92456H11.167C11.4814 6.92439 11.7283 6.66481 11.7285 6.35132C11.7285 6.02997 11.4816 5.77727 11.167 5.7771H9.09082Z" fill="#0B0D13"/>
</svg>
