<svg width="70" height="64" viewBox="0 0 70 64" fill="none" xmlns="http://www.w3.org/2000/svg">
<rect x="2" y="2" width="66" height="60" rx="8" stroke="#1E1E1E" stroke-width="4"/>
<path d="M51.9975 18.2936C52.0079 18.128 51.9855 17.9619 51.9317 17.8057C51.8778 17.6494 51.7937 17.5062 51.6844 17.385C51.5751 17.2638 51.4431 17.1671 51.2964 17.1008C51.1497 17.0346 50.9914 17.0003 50.8314 17H18.1687C18.0086 17.0001 17.8503 17.0342 17.7035 17.1004C17.5566 17.1665 17.4245 17.2632 17.3152 17.3845C17.2058 17.5058 17.1217 17.649 17.0679 17.8054C17.0142 17.9618 16.9919 18.128 17.0026 18.2936C17.2768 22.2537 18.792 26.0122 21.3173 28.9958C23.8425 31.9795 27.2392 34.0247 30.9893 34.8196V50.7877C30.9894 51.0181 31.0528 51.2438 31.1721 51.4382C31.2913 51.6326 31.4615 51.7878 31.6627 51.8855C31.8639 51.9833 32.0878 52.0195 32.3081 51.99C32.5284 51.9606 32.7361 51.8666 32.9068 51.7191L37.5836 47.6765C37.7155 47.5629 37.8215 47.4205 37.8943 47.2596C37.967 47.0986 38.0047 46.9229 38.0045 46.7451V34.8196C41.756 34.0262 45.1542 31.9816 47.6807 28.9978C50.2072 26.0139 51.7232 22.2547 51.9975 18.2936Z" fill="#1E1E1E" stroke="#1E1E1E" stroke-width="3" stroke-linecap="round" stroke-linejoin="round"/>
</svg>
