<svg width="23" height="23" viewBox="0 0 23 23" fill="none" xmlns="http://www.w3.org/2000/svg">
<path d="M10.3404 15.6113C10.7142 15.985 11.3179 15.985 11.6917 15.6113L15.1321 12.1708C15.5058 11.7971 15.5058 11.1933 15.1321 10.8196L11.6917 7.37917C11.3179 7.00542 10.7142 7.00542 10.3404 7.37917C9.96667 7.75292 9.96667 8.35667 10.3404 8.73042L12.1421 10.5417H3.83333C3.30625 10.5417 2.875 10.9729 2.875 11.5C2.875 12.0271 3.30625 12.4583 3.83333 12.4583H12.1421L10.3404 14.26C9.96667 14.6337 9.97625 15.2471 10.3404 15.6113ZM18.2083 2.875H4.79167C3.72792 2.875 2.875 3.7375 2.875 4.79167V7.66667C2.875 8.19375 3.30625 8.625 3.83333 8.625C4.36042 8.625 4.79167 8.19375 4.79167 7.66667V5.75C4.79167 5.22292 5.22292 4.79167 5.75 4.79167H17.25C17.7771 4.79167 18.2083 5.22292 18.2083 5.75V17.25C18.2083 17.7771 17.7771 18.2083 17.25 18.2083H5.75C5.22292 18.2083 4.79167 17.7771 4.79167 17.25V15.3333C4.79167 14.8062 4.36042 14.375 3.83333 14.375C3.30625 14.375 2.875 14.8062 2.875 15.3333V18.2083C2.875 19.2625 3.7375 20.125 4.79167 20.125H18.2083C19.2625 20.125 20.125 19.2625 20.125 18.2083V4.79167C20.125 3.7375 19.2625 2.875 18.2083 2.875Z" fill="#0B0D13"/>
</svg>
