<svg width="50" height="50" viewBox="0 0 50 50" fill="none" xmlns="http://www.w3.org/2000/svg">
<path d="M42.9766 33.3311C42.8145 33.1357 42.6553 32.9404 42.499 32.752C40.3506 30.1533 39.0508 28.585 39.0508 21.2285C39.0508 17.4199 38.1397 14.2949 36.3438 11.9512C35.0195 10.2197 33.2295 8.90625 30.8701 7.93555C30.8398 7.91866 30.8126 7.8965 30.79 7.87012C29.9414 5.02832 27.6191 3.125 25 3.125C22.3809 3.125 20.0596 5.02832 19.2109 7.86719C19.1883 7.89264 19.1616 7.9141 19.1318 7.93066C13.626 10.1973 10.9502 14.5459 10.9502 21.2256C10.9502 28.585 9.65235 30.1533 7.50196 32.749C7.34571 32.9375 7.18653 33.1289 7.02442 33.3281C6.60567 33.8331 6.34036 34.4475 6.25988 35.0986C6.17941 35.7497 6.28713 36.4102 6.57032 37.002C7.17286 38.2715 8.45704 39.0596 9.92286 39.0596H40.0879C41.5469 39.0596 42.8223 38.2725 43.4268 37.0088C43.7112 36.4169 43.8199 35.7558 43.7401 35.104C43.6603 34.4522 43.3953 33.8369 42.9766 33.3311ZM25 46.875C26.4112 46.8739 27.7957 46.4908 29.0068 45.7665C30.2179 45.0421 31.2103 44.0035 31.8789 42.7607C31.9104 42.7012 31.926 42.6345 31.9241 42.5672C31.9222 42.4998 31.9029 42.4341 31.8681 42.3764C31.8333 42.3187 31.7842 42.271 31.7255 42.2379C31.6668 42.2048 31.6006 42.1874 31.5332 42.1875H18.4688C18.4013 42.1873 18.3349 42.2045 18.2761 42.2375C18.2173 42.2706 18.168 42.3183 18.1331 42.376C18.0982 42.4337 18.0789 42.4995 18.0769 42.5669C18.075 42.6343 18.0905 42.7011 18.1221 42.7607C18.7906 44.0033 19.7829 45.0419 20.9938 45.7662C22.2047 46.4905 23.589 46.8737 25 46.875Z" fill="#2C2C2C"/>
</svg>
