<svg width="22" height="22" viewBox="0 0 22 22" fill="none" xmlns="http://www.w3.org/2000/svg">
<path d="M11.2613 12.899L7.96191 13.371L8.433 10.0707L16.918 1.58576C17.293 1.21071 17.8017 1 18.3321 1C18.8625 1 19.3712 1.21071 19.7463 1.58576C20.1213 1.96082 20.332 2.46951 20.332 2.99992C20.332 3.53033 20.1213 4.03902 19.7463 4.41408L11.2613 12.899Z" stroke="#5D5A88" stroke-width="2" stroke-linecap="round" stroke-linejoin="round"/>
<path d="M16.9993 13.0004V19.6667C16.9993 20.0203 16.8588 20.3595 16.6088 20.6095C16.3587 20.8595 16.0196 21 15.666 21H2.33327C1.97967 21 1.64054 20.8595 1.39051 20.6095C1.14047 20.3595 1 20.0203 1 19.6667V6.33401C1 5.9804 1.14047 5.64128 1.39051 5.39124C1.64054 5.1412 1.97967 5.00073 2.33327 5.00073H8.99964" stroke="#5D5A88" stroke-width="2" stroke-linecap="round" stroke-linejoin="round"/>
</svg>
