<svg width="50" height="50" viewBox="0 0 50 50" fill="none" xmlns="http://www.w3.org/2000/svg">
<path fill-rule="evenodd" clip-rule="evenodd" d="M25 8.33333C22.0849 8.3328 19.2207 9.09685 16.6931 10.5492C14.1656 12.0016 12.0632 14.0915 10.5958 16.6103C9.12845 19.1291 8.34736 21.9888 8.33054 24.9038C8.31371 27.8189 9.06175 30.6873 10.5 33.2229C11.4721 31.9595 12.7217 30.9366 14.1522 30.2333C15.5828 29.5299 17.1559 29.165 18.75 29.1667H31.25C32.8441 29.165 34.4172 29.5299 35.8477 30.2333C37.2783 30.9366 38.5279 31.9595 39.5 33.2229C40.9382 30.6873 41.6862 27.8189 41.6694 24.9038C41.6526 21.9888 40.8715 19.1291 39.4041 16.6103C37.9367 14.0915 35.8343 12.0016 33.3068 10.5492C30.7793 9.09685 27.9151 8.3328 25 8.33333ZM41.5479 37.6583C41.809 37.3181 42.059 36.9694 42.2979 36.6125C44.6076 33.1806 45.8387 29.1367 45.8333 25C45.8333 13.4937 36.5062 4.16666 25 4.16666C13.4937 4.16666 4.16665 13.4937 4.16665 25C4.16008 29.5766 5.66673 34.0269 8.45206 37.6583L8.44165 37.6958L9.18123 38.5563C11.1352 40.8406 13.5612 42.6742 16.2921 43.9305C19.0231 45.1868 21.9939 45.836 25 45.8333C25.45 45.8333 25.8972 45.8194 26.3416 45.7917C30.1008 45.5546 33.7243 44.2978 36.8229 42.1562C38.3048 41.1339 39.6479 39.9239 40.8187 38.5563L41.5583 37.6958L41.5479 37.6583ZM25 12.5C23.3424 12.5 21.7527 13.1585 20.5806 14.3306C19.4085 15.5027 18.75 17.0924 18.75 18.75C18.75 20.4076 19.4085 21.9973 20.5806 23.1694C21.7527 24.3415 23.3424 25 25 25C26.6576 25 28.2473 24.3415 29.4194 23.1694C30.5915 21.9973 31.25 20.4076 31.25 18.75C31.25 17.0924 30.5915 15.5027 29.4194 14.3306C28.2473 13.1585 26.6576 12.5 25 12.5Z" fill="#2C2C2C"/>
</svg>
