<svg width="85" height="91" viewBox="0 0 85 91" fill="none" xmlns="http://www.w3.org/2000/svg">
<path fill-rule="evenodd" clip-rule="evenodd" d="M54.0564 47.0564C53.3614 45.09 52.0737 43.3875 50.3708 42.1834C48.6679 40.9794 46.6335 40.333 44.5479 40.3333V37.8125H39.5062V40.3333C36.8319 40.3333 34.2672 41.3957 32.3762 43.2867C30.4852 45.1777 29.4229 47.7424 29.4229 50.4167C29.4229 53.0909 30.4852 55.6557 32.3762 57.5467C34.2672 59.4376 36.8319 60.5 39.5062 60.5V70.5833C37.3131 70.5833 35.4451 69.1843 34.7494 67.2231C34.6461 66.9022 34.4796 66.6053 34.2596 66.3499C34.0397 66.0945 33.7707 65.8859 33.4687 65.7362C33.1667 65.5866 32.8377 65.4991 32.5012 65.4788C32.1648 65.4585 31.8277 65.5059 31.5099 65.6182C31.1921 65.7305 30.9 65.9054 30.651 66.1325C30.4019 66.3597 30.201 66.6344 30.06 66.9406C29.919 67.2467 29.8408 67.578 29.8301 67.9149C29.8194 68.2518 29.8763 68.5874 29.9976 68.9019C30.6926 70.8683 31.9803 72.5708 33.6832 73.7749C35.3862 74.979 37.4206 75.6253 39.5062 75.625V78.1458H44.5479V75.625C47.2221 75.625 49.7869 74.5626 51.6778 72.6717C53.5688 70.7807 54.6312 68.2159 54.6312 65.5417C54.6312 62.8674 53.5688 60.3027 51.6778 58.4117C49.7869 56.5207 47.2221 55.4583 44.5479 55.4583V45.375C45.5905 45.3747 46.6076 45.6977 47.459 46.2995C48.3105 46.9013 48.9544 47.7523 49.3021 48.7353C49.5248 49.3657 49.9887 49.8819 50.592 50.1703C50.8907 50.3131 51.2145 50.3956 51.5451 50.4133C51.8757 50.4309 52.2066 50.3832 52.5187 50.273C52.8309 50.1627 53.1183 49.9921 53.3645 49.7708C53.6107 49.5495 53.811 49.2818 53.9538 48.9832C54.0965 48.6845 54.1791 48.3606 54.1967 48.03C54.2143 47.6994 54.1667 47.3686 54.0564 47.0564ZM39.5062 45.375C38.1691 45.375 36.8867 45.9062 35.9412 46.8517C34.9957 47.7972 34.4645 49.0795 34.4645 50.4167C34.4645 51.7538 34.9957 53.0362 35.9412 53.9817C36.8867 54.9272 38.1691 55.4583 39.5062 55.4583V45.375ZM44.5479 70.5833C45.885 70.5833 47.1674 70.0522 48.1128 69.1067C49.0583 68.1612 49.5895 66.8788 49.5895 65.5417C49.5895 64.2045 49.0583 62.9222 48.1128 61.9767C47.1674 61.0312 45.885 60.5 44.5479 60.5V70.5833Z" fill="black"/>
<path fill-rule="evenodd" clip-rule="evenodd" d="M14.6835 6.6071C20.8696 3.57958 31.0185 0 42.1253 0C53.0002 0 62.8818 3.43085 69.0352 6.41804L69.3831 6.58694C71.2384 7.50452 72.7358 8.37169 73.7895 9.075L64.4775 22.6875C85.9449 44.6339 102.527 90.7424 42.1253 90.7424C-18.2764 90.7424 -2.14055 45.4708 19.5134 22.6875L10.2619 9.075C10.9753 8.60865 11.8803 8.06667 12.9592 7.49192C13.4937 7.20454 14.0684 6.90792 14.6835 6.6071ZM58.493 22.5085L65.9472 11.611C59.0149 12.1101 50.7667 13.7385 42.8261 16.0375C37.1542 17.6761 30.8521 17.4265 25.0164 16.3501C23.5457 16.0778 22.0853 15.7533 20.6377 15.3771L25.4777 22.5035C35.8509 26.1965 48.1173 26.1965 58.493 22.5085ZM22.5661 26.7965C34.7039 31.4852 49.292 31.4852 61.4298 26.7914C66.495 32.1334 70.7332 38.2025 74.0037 44.7977C77.4119 51.7502 79.2672 58.7001 78.9647 64.6896C78.6723 70.4699 76.3985 75.4082 71.2056 79.0785C65.7934 82.9026 56.6907 85.7008 42.1228 85.7008C27.5397 85.7008 18.3942 82.9505 12.9315 79.1693C7.70078 75.5468 5.4043 70.6741 5.07912 64.972C4.7388 59.048 6.5538 52.1334 9.94936 45.133C13.1886 38.4578 17.7085 32.0322 22.5661 26.7965ZM19.6672 9.87158C21.6838 10.4715 23.7913 10.9934 25.9289 11.3891C31.3487 12.3874 36.7836 12.5336 41.422 11.19C46.827 9.61472 52.3246 8.37629 57.883 7.48183C53.2447 6.08529 47.8198 5.04167 42.1228 5.04167C33.4385 5.04167 25.3391 7.46419 19.6672 9.87158Z" fill="black"/>
</svg>
