<svg width="121" height="121" viewBox="0 0 121 121" fill="none" xmlns="http://www.w3.org/2000/svg">
<path d="M15.125 50.4167H11.3438C11.3438 52.5039 13.0377 54.1979 15.125 54.1979V50.4167ZM15.125 70.5833V66.8021C14.1221 66.8021 13.1604 67.2005 12.4513 67.9096C11.7421 68.6187 11.3438 69.5805 11.3438 70.5833H15.125ZM105.875 50.4167V54.1979C106.878 54.1979 107.84 53.7995 108.549 53.0904C109.258 52.3813 109.656 51.4195 109.656 50.4167H105.875ZM105.875 70.5833H109.656C109.656 69.5805 109.258 68.6187 108.549 67.9096C107.84 67.2005 106.878 66.8021 105.875 66.8021V70.5833ZM25.2083 28.9896H50.4167V21.4271H25.2083V28.9896ZM50.4167 28.9896H95.7917V21.4271H50.4167V28.9896ZM95.7917 92.0104H50.4167V99.5729H95.7917V92.0104ZM50.4167 92.0104H25.2083V99.5729H50.4167V92.0104ZM46.6354 25.2083V95.7917H54.1979V25.2083H46.6354ZM19.5818 56.0432C20.1672 56.6284 20.6316 57.3232 20.9484 58.0879C21.2652 58.8526 21.4283 59.6723 21.4283 60.5C21.4283 61.3278 21.2652 62.1474 20.9484 62.9121C20.6316 63.6768 20.1672 64.3716 19.5818 64.9568L24.926 70.301C27.526 67.7009 28.9866 64.1745 28.9866 60.4975C28.9866 56.8205 27.526 53.2941 24.926 50.694L19.5818 56.0432ZM101.418 64.9568C100.833 64.3716 100.368 63.6768 100.052 62.9121C99.7348 62.1474 99.5717 61.3278 99.5717 60.5C99.5717 59.6723 99.7348 58.8526 100.052 58.0879C100.368 57.3232 100.833 56.6284 101.418 56.0432L96.074 50.699C93.474 53.2991 92.0134 56.8255 92.0134 60.5025C92.0134 64.1795 93.474 67.706 96.074 70.306L101.418 64.9568ZM15.125 54.1979C16.7434 54.1979 18.3517 54.813 19.5818 56.0432L24.926 50.694C23.6408 49.4041 22.1132 48.3861 20.4312 47.6887C18.7492 46.9914 16.9459 46.6334 15.125 46.6354V54.1979ZM18.9062 50.4167V35.2917H11.3438V50.4167H18.9062ZM18.9062 85.7083V70.5833H11.3438V85.7083H18.9062ZM19.5818 64.9568C18.9982 65.5443 18.3036 66.0099 17.5386 66.3266C16.7735 66.6434 15.9531 66.805 15.125 66.8021V74.3646C18.6693 74.3646 22.2237 73.0084 24.931 70.301L19.5818 64.9568ZM101.418 56.0432C102.648 54.813 104.257 54.1979 105.875 54.1979V46.6354C102.331 46.6354 98.7814 47.9916 96.074 50.699L101.418 56.0432ZM102.094 35.2917V50.4167H109.656V35.2917H102.094ZM102.094 70.5833V85.7083H109.656V70.5833H102.094ZM105.875 66.8021C104.257 66.8021 102.648 66.187 101.418 64.9568L96.074 70.306C97.3592 71.5959 98.8868 72.6139 100.569 73.3113C102.251 74.0087 104.054 74.3666 105.875 74.3646V66.8021ZM25.2083 92.0104C21.7296 92.0104 18.9062 89.1871 18.9062 85.7083H11.3438C11.3438 89.3855 12.8045 92.912 15.4046 95.5121C18.0047 98.1122 21.5312 99.5729 25.2083 99.5729V92.0104ZM95.7917 99.5729C99.4688 99.5729 102.995 98.1122 105.595 95.5121C108.196 92.912 109.656 89.3855 109.656 85.7083H102.094C102.094 89.1871 99.2704 92.0104 95.7917 92.0104V99.5729ZM95.7917 28.9896C99.2704 28.9896 102.094 31.8129 102.094 35.2917H109.656C109.656 31.6146 108.196 28.088 105.595 25.4879C102.995 22.8878 99.4688 21.4271 95.7917 21.4271V28.9896ZM25.2083 21.4271C21.5312 21.4271 18.0047 22.8878 15.4046 25.4879C12.8045 28.088 11.3438 31.6146 11.3438 35.2917H18.9062C18.9062 31.8129 21.7296 28.9896 25.2083 28.9896V21.4271Z" fill="black"/>
</svg>
